<svg width="65" height="65" viewBox="0 0 65 65" fill="none" xmlns="http://www.w3.org/2000/svg">
<g opacity="0.05">
<path opacity="0.0323" d="M32.6372 63.93C15.4114 63.93 1.39844 49.9175 1.39844 32.692C1.39844 15.4658 15.4114 1.45312 32.6372 1.45312C49.863 1.45312 63.8759 15.4658 63.8759 32.692C63.8759 49.9174 49.863 63.93 32.6372 63.93Z" fill="#010101"/>
<path opacity="0.0645" d="M32.632 63.7751C15.4902 63.7751 1.54688 49.8321 1.54688 32.6906C1.54688 15.5485 15.4901 1.60547 32.632 1.60547C49.7738 1.60547 63.7172 15.5485 63.7172 32.6906C63.7172 49.8321 49.7738 63.7751 32.632 63.7751Z" fill="#010101"/>
<path opacity="0.0968" d="M32.6346 63.622C15.5767 63.622 1.70312 49.7487 1.70312 32.6912C1.70312 15.633 15.5767 1.75977 32.6346 1.75977C49.6925 1.75977 63.5661 15.6331 63.5661 32.6912C63.5661 49.7487 49.6925 63.622 32.6346 63.622Z" fill="#010101"/>
<path opacity="0.129" d="M32.6372 63.4691C15.6633 63.4691 1.85938 49.6655 1.85938 32.6919C1.85938 15.7177 15.6633 1.91406 32.6372 1.91406C49.6111 1.91406 63.415 15.7177 63.415 32.6919C63.415 49.6655 49.6111 63.4691 32.6372 63.4691Z" fill="#010101"/>
<path opacity="0.1613" d="M32.6319 63.314C15.7421 63.314 2.00781 49.5801 2.00781 32.6905C2.00781 15.8002 15.742 2.06641 32.6319 2.06641C49.5219 2.06641 63.256 15.8002 63.256 32.6905C63.256 49.5801 49.5219 63.314 32.6319 63.314Z" fill="#010101"/>
<path opacity="0.1935" d="M32.6345 63.161C15.8285 63.161 2.16406 49.4969 2.16406 32.6911C2.16406 15.8849 15.8285 2.2207 32.6345 2.2207C49.4404 2.2207 63.105 15.8851 63.105 32.6911C63.105 49.4969 49.4404 63.161 32.6345 63.161Z" fill="#010101"/>
<path opacity="0.2258" d="M32.637 63.008C15.9151 63.008 2.32031 49.4135 2.32031 32.6917C2.32031 15.9695 15.9151 2.375 32.637 2.375C49.359 2.375 62.9538 15.9695 62.9538 32.6917C62.9538 49.4135 49.359 63.008 32.637 63.008Z" fill="#010101"/>
<path opacity="0.2581" d="M32.6319 62.8529C15.9938 62.8529 2.46875 49.3282 2.46875 32.6903C2.46875 16.0521 15.9938 2.52734 32.6319 2.52734C49.2698 2.52734 62.7949 16.0522 62.7949 32.6903C62.7949 49.3282 49.2698 62.8529 32.6319 62.8529Z" fill="#010101"/>
<path opacity="0.2903" d="M32.6345 62.6999C16.0804 62.6999 2.625 49.2448 2.625 32.691C2.625 16.1368 16.0804 2.68164 32.6345 2.68164C49.1884 2.68164 62.6438 16.1368 62.6438 32.691C62.6438 49.2447 49.1884 62.6999 32.6345 62.6999Z" fill="#010101"/>
<path opacity="0.3226" d="M32.6371 62.547C16.1671 62.547 2.78125 49.1616 2.78125 32.6917C2.78125 16.2214 16.167 2.83594 32.6371 2.83594C49.1071 2.83594 62.4928 16.2214 62.4928 32.6917C62.4928 49.1615 49.1071 62.547 32.6371 62.547Z" fill="#010101"/>
<path opacity="0.3548" d="M32.6318 62.392C16.2457 62.392 2.92969 49.0762 2.92969 32.6904C2.92969 16.3041 16.2457 2.98828 32.6318 2.98828C49.0179 2.98828 62.3338 16.3041 62.3338 32.6903C62.3339 49.0762 49.0179 62.392 32.6318 62.392Z" fill="#010101"/>
<path opacity="0.3871" d="M32.6344 62.239C16.3323 62.239 3.08594 48.9928 3.08594 32.6909C3.08594 16.3886 16.3323 3.14258 32.6344 3.14258C48.9364 3.14258 62.1826 16.3887 62.1826 32.6909C62.1827 48.9928 48.9364 62.239 32.6344 62.239Z" fill="#010101"/>
<path opacity="0.4194" d="M32.637 62.086C16.4188 62.086 3.24219 48.9096 3.24219 32.6916C3.24219 16.4733 16.4188 3.29688 32.637 3.29688C48.8551 3.29688 62.0318 16.4733 62.0318 32.6916C62.0318 48.9096 48.8551 62.086 32.637 62.086Z" fill="#010101"/>
<path opacity="0.4516" d="M32.6318 61.931C16.4976 61.931 3.39062 48.8243 3.39062 32.6903C3.39062 16.5559 16.4975 3.44922 32.6318 3.44922C48.7658 3.44922 61.8728 16.5559 61.8728 32.6903C61.8728 48.8243 48.7658 61.931 32.6318 61.931Z" fill="#010101"/>
<path opacity="0.4839" d="M32.6343 61.778C16.584 61.778 3.54688 48.7409 3.54688 32.6909C3.54688 16.6406 16.584 3.60352 32.6343 3.60352C48.6844 3.60352 61.7216 16.6406 61.7216 32.6909C61.7216 48.7409 48.6844 61.778 32.6343 61.778Z" fill="#010101"/>
<path opacity="0.5161" d="M32.6368 61.6248C16.6706 61.6248 3.70312 48.6575 3.70312 32.6914C3.70312 16.7252 16.6707 3.75781 32.6368 3.75781C48.6029 3.75781 61.5705 16.7252 61.5705 32.6914C61.5705 48.6575 48.6029 61.6248 32.6368 61.6248Z" fill="#010101"/>
<path opacity="0.5484" d="M32.6317 61.47C16.7495 61.47 3.85156 48.5723 3.85156 32.6901C3.85156 16.8078 16.7495 3.91016 32.6317 3.91016C48.5138 3.91016 61.4116 16.8078 61.4116 32.6901C61.4116 48.5723 48.5138 61.47 32.6317 61.47Z" fill="#010101"/>
<path opacity="0.5806" d="M32.6342 61.3168C16.8359 61.3168 4.00781 48.4889 4.00781 32.6907C4.00781 16.8924 16.8359 4.06445 32.6342 4.06445C48.4323 4.06445 61.2604 16.8924 61.2604 32.6907C61.2604 48.4887 48.4323 61.3168 32.6342 61.3168Z" fill="#010101"/>
<path opacity="0.6129" d="M32.6368 61.1638C16.9226 61.1638 4.16406 48.4057 4.16406 32.6914C4.16406 16.977 16.9225 4.21875 32.6368 4.21875C48.3511 4.21875 61.1095 16.977 61.1095 32.6914C61.1095 48.4055 48.3511 61.1638 32.6368 61.1638Z" fill="#010101"/>
<path opacity="0.6452" d="M32.6316 61.0108C17.0012 61.0108 4.3125 48.3221 4.3125 32.692C4.3125 17.0616 17.0012 4.37305 32.6316 4.37305C48.2618 4.37305 60.9505 17.0616 60.9505 32.692C60.9506 48.3221 48.2618 61.0108 32.6316 61.0108Z" fill="#010101"/>
<path opacity="0.6774" d="M32.6342 60.8559C17.0879 60.8559 4.46875 48.2369 4.46875 32.6907C4.46875 17.1443 17.0878 4.52539 32.6342 4.52539C48.1805 4.52539 60.7995 17.1443 60.7995 32.6907C60.7995 48.2369 48.1805 60.8559 32.6342 60.8559Z" fill="#010101"/>
<path opacity="0.7097" d="M32.6367 60.7029C17.1745 60.7029 4.625 48.1536 4.625 32.6913C4.625 17.2289 17.1743 4.67969 32.6367 4.67969C48.099 4.67969 60.6483 17.2289 60.6483 32.6913C60.6483 48.1536 48.099 60.7029 32.6367 60.7029Z" fill="#010101"/>
<path opacity="0.7419" d="M32.6315 60.5499C17.2531 60.5499 4.77344 48.0703 4.77344 32.692C4.77344 17.3135 17.2531 4.83398 32.6315 4.83398C48.0098 4.83398 60.4895 17.3135 60.4895 32.692C60.4895 48.0703 48.0098 60.5499 32.6315 60.5499Z" fill="#010101"/>
<path opacity="0.7742" d="M32.6341 60.3948C17.3396 60.3948 4.92969 47.985 4.92969 32.6906C4.92969 17.3962 17.3396 4.98633 32.6341 4.98633C47.9283 4.98633 60.3383 17.3962 60.3383 32.6906C60.3383 47.985 47.9283 60.3948 32.6341 60.3948Z" fill="#010101"/>
<path opacity="0.8065" d="M32.6366 60.2418C17.4261 60.2418 5.08594 47.9015 5.08594 32.6912C5.08594 17.4807 17.4262 5.14062 32.6366 5.14062C47.8469 5.14062 60.1871 17.4808 60.1871 32.6912C60.1871 47.9015 47.8469 60.2418 32.6366 60.2418Z" fill="#010101"/>
<path opacity="0.8387" d="M32.6315 60.0888C17.505 60.0888 5.23438 47.8183 5.23438 32.6918C5.23438 17.5654 17.505 5.29492 32.6315 5.29492C47.7578 5.29492 60.0283 17.5654 60.0283 32.6918C60.0283 47.8183 47.7578 60.0888 32.6315 60.0888Z" fill="#010101"/>
<path opacity="0.871" d="M32.634 59.9337C17.5914 59.9337 5.39062 47.7329 5.39062 32.6904C5.39062 17.648 17.5914 5.44727 32.634 5.44727C47.6764 5.44727 59.8771 17.648 59.8771 32.6904C59.8771 47.7328 47.6764 59.9337 32.634 59.9337Z" fill="#010101"/>
<path opacity="0.9032" d="M32.6367 59.7808C17.6781 59.7808 5.54688 47.6497 5.54688 32.6911C5.54688 17.7326 17.6781 5.60156 32.6367 5.60156C47.595 5.60156 59.7261 17.7326 59.7261 32.6911C59.7262 47.6496 47.595 59.7808 32.6367 59.7808Z" fill="#010101"/>
<path opacity="0.9355" d="M32.6314 59.6276C17.7568 59.6276 5.69531 47.5661 5.69531 32.6917C5.69531 17.8172 17.7568 5.75586 32.6314 5.75586C47.5058 5.75586 59.5672 17.8172 59.5672 32.6917C59.5672 47.5661 47.5058 59.6276 32.6314 59.6276Z" fill="#010101"/>
<path opacity="0.9677" d="M32.634 59.4729C17.8434 59.4729 5.85156 47.4811 5.85156 32.6904C5.85156 17.8999 17.8434 5.9082 32.634 5.9082C47.4244 5.9082 59.4162 17.8999 59.4162 32.6904C59.4162 47.4811 47.4244 59.4729 32.634 59.4729Z" fill="#010101"/>
<path d="M32.6364 59.3197C47.343 59.3197 59.2651 47.3977 59.2651 32.6911C59.2651 17.9845 47.343 6.0625 32.6364 6.0625C17.9299 6.0625 6.00781 17.9845 6.00781 32.6911C6.00781 47.3977 17.9299 59.3197 32.6364 59.3197Z" fill="#010101"/>
</g>
<path d="M32.6364 59.3197C47.343 59.3197 59.2651 47.3977 59.2651 32.6911C59.2651 17.9845 47.343 6.0625 32.6364 6.0625C17.9299 6.0625 6.00781 17.9845 6.00781 32.6911C6.00781 47.3977 17.9299 59.3197 32.6364 59.3197Z" fill="white"/>
<path d="M32.6311 10.9648C20.652 10.9648 10.9062 20.7111 10.9062 32.6901C10.9062 44.6691 20.6519 54.4154 32.6311 54.4154C44.6103 54.4154 54.3562 44.6691 54.3562 32.6901C54.3562 20.7111 44.6103 10.9648 32.6311 10.9648Z" fill="#BC3030"/>
<path d="M39.6056 43.9627H25.6558C25.1502 43.9627 24.6742 43.7235 24.372 43.3186C24.0698 42.9128 23.977 42.3889 24.1215 41.9043C25.4573 37.4254 28.7986 34.5312 32.6341 34.5312C36.4659 34.5312 39.8046 37.4254 41.14 41.9043C41.2846 42.3889 41.1915 42.9128 40.8894 43.3186C40.5871 43.7235 40.111 43.9627 39.6056 43.9627Z" fill="white"/>
<path d="M23.3624 32.4974C22.8637 32.4974 22.3739 32.2587 22.0731 31.8142C21.5907 31.103 21.7763 30.1356 22.4875 29.653L25.6444 27.5123L22.4875 25.3715C21.7763 24.889 21.5907 23.9215 22.0731 23.2102C22.5556 22.499 23.5236 22.3136 24.2346 22.7953L29.2906 26.2241C29.7177 26.5137 29.9735 26.9963 29.9735 27.5123C29.9735 28.0282 29.7177 28.5109 29.2906 28.8004L24.2346 32.2292C23.9671 32.4108 23.6631 32.4974 23.3624 32.4974Z" fill="white"/>
<path d="M41.9003 32.4985C41.5995 32.4985 41.2956 32.4119 41.028 32.2303L35.9717 28.8014C35.5447 28.512 35.2891 28.0293 35.2891 27.5134C35.2891 26.9973 35.5447 26.5149 35.9717 26.2252L41.028 22.7963C41.7392 22.3131 42.7073 22.4985 43.1897 23.2113C43.6719 23.9226 43.4865 24.8901 42.7752 25.3726L39.6183 27.5134L42.7752 29.6541C43.4865 30.1367 43.6719 31.1041 43.1897 31.8152C42.8887 32.2592 42.3987 32.4985 41.9003 32.4985Z" fill="white"/>
</svg>
