<svg width="540" height="540" viewBox="0 0 540 540" fill="none" xmlns="http://www.w3.org/2000/svg">
<g opacity="0.05">
<path opacity="0.0323" d="M271.115 535.184C125.772 535.184 7.53809 416.953 7.53809 271.613C7.53809 126.267 125.772 8.03467 271.115 8.03467C416.458 8.03467 534.692 126.267 534.692 271.613C534.692 416.952 416.458 535.184 271.115 535.184Z" fill="#010101"/>
<path opacity="0.0645" d="M271.115 533.888C126.481 533.888 8.83398 416.244 8.83398 271.613C8.83398 126.976 126.48 9.33203 271.115 9.33203C415.749 9.33203 533.396 126.976 533.396 271.613C533.396 416.244 415.749 533.888 271.115 533.888Z" fill="#010101"/>
<path opacity="0.0968" d="M271.115 532.591C127.189 532.591 10.1313 415.535 10.1313 271.612C10.1313 127.683 127.189 10.6279 271.115 10.6279C415.041 10.6279 532.1 127.684 532.1 271.612C532.1 415.535 415.041 532.591 271.115 532.591Z" fill="#010101"/>
<path opacity="0.129" d="M271.115 531.295C127.898 531.295 11.4272 414.827 11.4272 271.612C11.4272 128.392 127.898 11.9238 271.115 11.9238C414.332 11.9238 530.803 128.392 530.803 271.612C530.803 414.827 414.332 531.295 271.115 531.295Z" fill="#010101"/>
<path opacity="0.1613" d="M271.115 529.998C128.607 529.998 12.7241 414.118 12.7241 271.612C12.7241 129.1 128.606 13.2207 271.115 13.2207C413.624 13.2207 529.506 129.1 529.506 271.612C529.506 414.118 413.624 529.998 271.115 529.998Z" fill="#010101"/>
<path opacity="0.1935" d="M271.115 528.701C129.315 528.701 14.021 413.41 14.021 271.611C14.021 129.809 129.315 14.5166 271.115 14.5166C412.915 14.5166 528.21 129.81 528.21 271.611C528.21 413.41 412.915 528.701 271.115 528.701Z" fill="#010101"/>
<path opacity="0.2258" d="M271.115 527.405C130.024 527.405 15.3184 412.701 15.3184 271.611C15.3184 130.518 130.024 15.814 271.115 15.814C412.207 15.814 526.913 130.518 526.913 271.611C526.913 412.701 412.207 527.405 271.115 527.405Z" fill="#010101"/>
<path opacity="0.2581" d="M271.116 526.108C130.732 526.108 16.6143 411.993 16.6143 271.611C16.6143 131.226 130.732 17.1108 271.116 17.1108C411.498 17.1108 525.616 131.227 525.616 271.611C525.616 411.993 411.498 526.108 271.116 526.108Z" fill="#010101"/>
<path opacity="0.2903" d="M271.116 524.812C131.441 524.812 17.9111 411.285 17.9111 271.612C17.9111 131.936 131.441 18.4077 271.116 18.4077C410.79 18.4077 524.32 131.936 524.32 271.612C524.32 411.284 410.79 524.812 271.116 524.812Z" fill="#010101"/>
<path opacity="0.3226" d="M271.116 523.516C132.15 523.516 19.207 410.577 19.207 271.612C19.207 132.644 132.149 19.7036 271.116 19.7036C410.081 19.7036 523.023 132.644 523.023 271.612C523.023 410.576 410.081 523.516 271.116 523.516Z" fill="#010101"/>
<path opacity="0.3548" d="M271.116 522.219C132.858 522.219 20.5044 409.867 20.5044 271.612C20.5044 133.352 132.858 21 271.116 21C409.373 21 521.726 133.352 521.726 271.611C521.727 409.867 409.373 522.219 271.116 522.219Z" fill="#010101"/>
<path opacity="0.3871" d="M271.116 520.923C133.567 520.923 21.8013 409.158 21.8013 271.611C21.8013 134.06 133.567 22.2969 271.116 22.2969C408.664 22.2969 520.429 134.061 520.429 271.611C520.43 409.158 408.664 520.923 271.116 520.923Z" fill="#010101"/>
<path opacity="0.4194" d="M271.116 519.626C134.275 519.626 23.0972 408.45 23.0972 271.611C23.0972 134.769 134.275 23.5928 271.116 23.5928C407.956 23.5928 519.134 134.769 519.134 271.611C519.134 408.45 407.956 519.626 271.116 519.626Z" fill="#010101"/>
<path opacity="0.4516" d="M271.116 518.329C134.984 518.329 24.394 407.741 24.394 271.611C24.394 135.477 134.983 24.8887 271.116 24.8887C407.247 24.8887 517.837 135.477 517.837 271.611C517.837 407.741 407.247 518.329 271.116 518.329Z" fill="#010101"/>
<path opacity="0.4839" d="M271.116 517.033C135.692 517.033 25.6914 407.033 25.6914 271.611C25.6914 136.186 135.692 26.186 271.116 26.186C406.539 26.186 516.54 136.186 516.54 271.611C516.54 407.033 406.539 517.033 271.116 517.033Z" fill="#010101"/>
<path opacity="0.5161" d="M271.116 515.736C136.401 515.736 26.9883 406.324 26.9883 271.61C26.9883 136.895 136.402 27.4829 271.116 27.4829C405.83 27.4829 515.244 136.895 515.244 271.61C515.244 406.324 405.83 515.736 271.116 515.736Z" fill="#010101"/>
<path opacity="0.5484" d="M271.116 514.44C137.11 514.44 28.2842 405.616 28.2842 271.61C28.2842 137.603 137.11 28.7788 271.116 28.7788C405.122 28.7788 513.947 137.603 513.947 271.61C513.947 405.616 405.122 514.44 271.116 514.44Z" fill="#010101"/>
<path opacity="0.5806" d="M271.116 513.144C137.818 513.144 29.5811 404.908 29.5811 271.611C29.5811 138.313 137.818 30.0767 271.116 30.0767C404.413 30.0767 512.65 138.313 512.65 271.611C512.65 404.907 404.413 513.144 271.116 513.144Z" fill="#010101"/>
<path opacity="0.6129" d="M271.116 511.847C138.527 511.847 30.8774 404.2 30.8774 271.611C30.8774 139.021 138.526 31.3726 271.116 31.3726C403.705 31.3726 511.354 139.021 511.354 271.611C511.354 404.199 403.705 511.847 271.116 511.847Z" fill="#010101"/>
<path opacity="0.6452" d="M271.116 510.551C139.235 510.551 32.1743 403.49 32.1743 271.611C32.1743 139.73 139.235 32.6699 271.116 32.6699C402.996 32.6699 510.057 139.73 510.057 271.611C510.058 403.49 402.996 510.551 271.116 510.551Z" fill="#010101"/>
<path opacity="0.6774" d="M271.116 509.254C139.944 509.254 33.4702 402.781 33.4702 271.61C33.4702 140.437 139.943 33.9648 271.116 33.9648C402.288 33.9648 508.761 140.437 508.761 271.61C508.761 402.781 402.288 509.254 271.116 509.254Z" fill="#010101"/>
<path opacity="0.7097" d="M271.116 507.958C140.653 507.958 34.7671 402.073 34.7671 271.61C34.7671 141.146 140.652 35.2617 271.116 35.2617C401.579 35.2617 507.464 141.146 507.464 271.61C507.464 402.073 401.579 507.958 271.116 507.958Z" fill="#010101"/>
<path opacity="0.7419" d="M271.116 506.661C141.361 506.661 36.0645 401.364 36.0645 271.61C36.0645 141.854 141.361 36.5576 271.116 36.5576C400.871 36.5576 506.168 141.854 506.168 271.61C506.168 401.364 400.871 506.661 271.116 506.661Z" fill="#010101"/>
<path opacity="0.7742" d="M271.117 505.364C142.07 505.364 37.3613 400.656 37.3613 271.61C37.3613 142.563 142.07 37.855 271.117 37.855C400.162 37.855 504.871 142.563 504.871 271.61C504.871 400.656 400.162 505.364 271.117 505.364Z" fill="#010101"/>
<path opacity="0.8065" d="M271.117 504.068C142.778 504.068 38.6582 399.947 38.6582 271.61C38.6582 143.271 142.779 39.1519 271.117 39.1519C399.454 39.1519 503.574 143.272 503.574 271.61C503.574 399.947 399.454 504.068 271.117 504.068Z" fill="#010101"/>
<path opacity="0.8387" d="M271.117 502.771C143.487 502.771 39.9541 399.239 39.9541 271.609C39.9541 143.98 143.487 40.4478 271.117 40.4478C398.745 40.4478 502.278 143.98 502.278 271.609C502.278 399.239 398.745 502.771 271.117 502.771Z" fill="#010101"/>
<path opacity="0.871" d="M271.117 501.475C144.195 501.475 41.251 398.531 41.251 271.61C41.251 144.69 144.195 41.7456 271.117 41.7456C398.037 41.7456 500.981 144.69 500.981 271.61C500.981 398.53 398.037 501.475 271.117 501.475Z" fill="#010101"/>
<path opacity="0.9032" d="M271.117 500.179C144.904 500.179 42.5474 397.823 42.5474 271.61C42.5474 145.398 144.904 43.042 271.117 43.042C397.328 43.042 499.684 145.398 499.684 271.61C499.685 397.822 397.328 500.179 271.117 500.179Z" fill="#010101"/>
<path opacity="0.9355" d="M271.117 498.882C145.613 498.882 43.8442 397.113 43.8442 271.61C43.8442 146.107 145.613 44.3389 271.117 44.3389C396.62 44.3389 498.388 146.107 498.388 271.61C498.388 397.113 396.62 498.882 271.117 498.882Z" fill="#010101"/>
<path opacity="0.9677" d="M271.117 497.586C146.321 497.586 45.1401 396.405 45.1401 271.609C45.1401 146.814 146.321 45.6338 271.117 45.6338C395.911 45.6338 497.092 146.814 497.092 271.609C497.092 396.405 395.911 497.586 271.117 497.586Z" fill="#010101"/>
<path d="M271.116 496.288C395.203 496.288 495.795 395.695 495.795 271.609C495.795 147.522 395.203 46.9297 271.116 46.9297C147.029 46.9297 46.437 147.522 46.437 271.609C46.437 395.695 147.029 496.288 271.116 496.288Z" fill="#010101"/>
</g>
<path d="M271.116 496.288C395.203 496.288 495.795 395.695 495.795 271.609C495.795 147.522 395.203 46.9297 271.116 46.9297C147.029 46.9297 46.437 147.522 46.437 271.609C46.437 395.695 147.029 496.288 271.116 496.288Z" fill="white"/>
<path d="M271.114 88.3027C170.041 88.3027 87.811 170.537 87.811 271.61C87.811 372.683 170.04 454.917 271.114 454.917C372.189 454.917 454.42 372.683 454.42 271.61C454.42 170.537 372.189 88.3027 271.114 88.3027Z" fill="#E21F26"/>
<path d="M329.966 366.728H212.265C207.999 366.728 203.983 364.71 201.433 361.293C198.883 357.869 198.1 353.449 199.319 349.36C210.59 311.569 238.782 287.15 271.144 287.15C303.475 287.15 331.645 311.569 342.913 349.36C344.133 353.449 343.347 357.869 340.798 361.293C338.248 364.71 334.231 366.728 329.966 366.728Z" fill="white"/>
<path d="M192.901 269.987C188.693 269.987 184.56 267.973 182.022 264.222C177.952 258.222 179.518 250.059 185.519 245.987L212.155 227.925L185.519 209.862C179.518 205.791 177.952 197.628 182.022 191.626C186.093 185.625 194.261 184.061 200.26 188.125L242.92 217.056C246.524 219.499 248.682 223.571 248.682 227.925C248.682 232.278 246.524 236.351 242.92 238.793L200.26 267.724C198.003 269.256 195.438 269.987 192.901 269.987Z" fill="white"/>
<path d="M349.331 269.987C346.793 269.987 344.229 269.256 341.971 267.724L299.309 238.793C295.706 236.351 293.549 232.278 293.549 227.925C293.549 223.571 295.706 219.5 299.309 217.056L341.971 188.125C347.972 184.048 356.14 185.612 360.211 191.626C364.279 197.628 362.715 205.791 356.713 209.862L330.077 227.925L356.713 245.987C362.715 250.059 364.279 258.222 360.211 264.222C357.671 267.968 353.537 269.987 349.331 269.987Z" fill="white"/>
</svg>
