<svg width="65" height="65" viewBox="0 0 65 65" fill="none" xmlns="http://www.w3.org/2000/svg">
<g clip-path="url(#clip0_623_1848)">
<g opacity="0.05">
<path opacity="0.0323" d="M32.4989 64.1652C15.078 64.1652 0.90625 49.9938 0.90625 32.5732C0.90625 15.152 15.078 0.980469 32.4989 0.980469C49.9199 0.980469 64.0916 15.1518 64.0916 32.5732C64.0916 49.9938 49.9199 64.1652 32.4989 64.1652Z" fill="#010101"/>
<path opacity="0.0645" d="M32.4998 64.0086C15.1637 64.0086 1.0625 49.9076 1.0625 32.572C1.0625 15.2356 15.1637 1.13477 32.4998 1.13477C49.8358 1.13477 63.9372 15.2357 63.9372 32.572C63.9372 49.9077 49.8358 64.0086 32.4998 64.0086Z" fill="#010101"/>
<path opacity="0.0968" d="M32.5005 63.8541C15.2494 63.8541 1.21875 49.8236 1.21875 32.5729C1.21875 15.3215 15.2494 1.29102 32.5005 1.29102C49.7518 1.29102 63.7824 15.3215 63.7824 32.5729C63.7824 49.8236 49.7518 63.8541 32.5005 63.8541Z" fill="#010101"/>
<path opacity="0.129" d="M32.5014 63.6975C15.3352 63.6975 1.375 49.7376 1.375 32.5718C1.375 15.4054 15.3352 1.44531 32.5014 1.44531C49.6677 1.44531 63.6279 15.4053 63.6279 32.5718C63.6279 49.7376 49.6677 63.6975 32.5014 63.6975Z" fill="#010101"/>
<path opacity="0.1613" d="M32.4945 63.5431C15.4132 63.5431 1.52344 49.6536 1.52344 32.5727C1.52344 15.4911 15.4132 1.60156 32.4945 1.60156C49.5758 1.60156 63.4655 15.4911 63.4655 32.5727C63.4655 49.6535 49.5758 63.5431 32.4945 63.5431Z" fill="#010101"/>
<path opacity="0.1935" d="M32.4952 63.3866C15.4988 63.3866 1.67969 49.5675 1.67969 32.5715C1.67969 15.5749 15.4989 1.75586 32.4952 1.75586C49.4916 1.75586 63.311 15.5749 63.311 32.5715C63.311 49.5676 49.4916 63.3866 32.4952 63.3866Z" fill="#010101"/>
<path opacity="0.2258" d="M32.4961 63.2319C15.5847 63.2319 1.83594 49.4834 1.83594 32.5724C1.83594 15.6606 15.5847 1.91211 32.4961 1.91211C49.4076 1.91211 63.1564 15.6606 63.1564 32.5723C63.1564 49.4834 49.4076 63.2319 32.4961 63.2319Z" fill="#010101"/>
<path opacity="0.2581" d="M32.497 63.0774C15.6705 63.0774 1.99219 49.3993 1.99219 32.5731C1.99219 15.7465 15.6705 2.06836 32.497 2.06836C49.3236 2.06836 63.0018 15.7465 63.0018 32.5731C63.0018 49.3993 49.3236 63.0774 32.497 63.0774Z" fill="#010101"/>
<path opacity="0.2903" d="M32.4978 62.921C15.7563 62.921 2.14844 49.3134 2.14844 32.5722C2.14844 15.8304 15.7563 2.22266 32.4978 2.22266C49.2395 2.22266 62.8472 15.8302 62.8472 32.572C62.8472 49.3133 49.2395 62.921 32.4978 62.921Z" fill="#010101"/>
<path opacity="0.3226" d="M32.4986 62.7662C15.842 62.7662 2.30469 49.2292 2.30469 32.5728C2.30469 15.916 15.842 2.37891 32.4986 2.37891C49.1553 2.37891 62.6927 15.916 62.6927 32.5729C62.6927 49.2292 49.1553 62.7662 32.4986 62.7662Z" fill="#010101"/>
<path opacity="0.3548" d="M32.4995 62.6099C15.9277 62.6099 2.46094 49.1432 2.46094 32.5718C2.46094 15.9999 15.9277 2.5332 32.4995 2.5332C49.0712 2.5332 62.5381 15.9999 62.5381 32.5718C62.5381 49.1432 49.0712 62.6099 32.4995 62.6099Z" fill="#010101"/>
<path opacity="0.3871" d="M32.5003 62.4553C16.0136 62.4553 2.61719 49.0591 2.61719 32.5726C2.61719 16.0856 16.0136 2.68945 32.5003 2.68945C48.9872 2.68945 62.3836 16.0856 62.3836 32.5726C62.3836 49.0591 48.9872 62.4553 32.5003 62.4553Z" fill="#010101"/>
<path opacity="0.4194" d="M32.5011 62.2988C16.0993 62.2988 2.77344 48.9731 2.77344 32.5716C2.77344 16.1695 16.0993 2.84375 32.5011 2.84375C48.9031 2.84375 62.2288 16.1695 62.2288 32.5715C62.2288 48.9731 48.9031 62.2988 32.5011 62.2988Z" fill="#010101"/>
<path opacity="0.4516" d="M32.502 62.1443C16.185 62.1443 2.92969 48.8891 2.92969 32.5724C2.92969 16.2552 16.185 3 32.502 3C48.819 3 62.0745 16.2552 62.0745 32.5724C62.0745 48.8891 48.819 62.1443 32.502 62.1443Z" fill="#010101"/>
<path opacity="0.4839" d="M32.495 61.9897C16.2631 61.9897 3.07812 48.805 3.07812 32.5733C3.07813 16.341 16.2631 3.15625 32.495 3.15625C48.7271 3.15625 61.912 16.341 61.912 32.5733C61.912 48.8048 48.7271 61.9897 32.495 61.9897Z" fill="#010101"/>
<path opacity="0.5161" d="M32.4959 61.8332C16.3487 61.8332 3.23438 48.719 3.23438 32.5721C3.23438 16.4249 16.3487 3.31055 32.4959 3.31055C48.643 3.31055 61.7574 16.4247 61.7574 32.5721C61.7574 48.719 48.643 61.8332 32.4959 61.8332Z" fill="#010101"/>
<path opacity="0.5484" d="M32.4968 61.6785C16.4345 61.6785 3.39062 48.6347 3.39062 32.5728C3.39062 16.5106 16.4345 3.4668 32.4968 3.4668C48.5589 3.4668 61.6028 16.5106 61.6028 32.5728C61.6028 48.6348 48.5589 61.6785 32.4968 61.6785Z" fill="#010101"/>
<path opacity="0.5806" d="M32.4975 61.5221C16.5201 61.5221 3.54688 48.5489 3.54688 32.5717C3.54688 16.5944 16.5203 3.62109 32.4975 3.62109C48.4748 3.62109 61.4481 16.5944 61.4481 32.5717C61.4481 48.5489 48.4748 61.5221 32.4975 61.5221Z" fill="#010101"/>
<path opacity="0.6129" d="M32.4984 61.3675C16.606 61.3675 3.70312 48.4647 3.70312 32.5726C3.70312 16.6802 16.606 3.77734 32.4984 3.77734C48.3907 3.77734 61.2936 16.6802 61.2936 32.5726C61.2936 48.4647 48.3907 61.3675 32.4984 61.3675Z" fill="#010101"/>
<path opacity="0.6452" d="M32.4993 61.2109C16.6918 61.2109 3.85938 48.3787 3.85938 32.5714C3.85938 16.7639 16.6918 3.93164 32.4993 3.93164C48.3067 3.93164 61.139 16.7639 61.139 32.5714C61.139 48.3786 48.3067 61.2109 32.4993 61.2109Z" fill="#010101"/>
<path opacity="0.6774" d="M32.5 61.0564C16.7775 61.0564 4.01562 48.2945 4.01562 32.5723C4.01562 16.8497 16.7776 4.08789 32.5 4.08789C48.2224 4.08789 60.9844 16.8497 60.9844 32.5723C60.9844 48.2946 48.2224 61.0564 32.5 61.0564Z" fill="#010101"/>
<path opacity="0.7097" d="M32.5009 60.9018C16.8633 60.9018 4.17188 48.2105 4.17188 32.5731C4.17188 16.9355 16.8633 4.24414 32.5009 4.24414C48.1383 4.24414 60.8299 16.9355 60.8299 32.5731C60.8299 48.2105 48.1383 60.9018 32.5009 60.9018Z" fill="#010101"/>
<path opacity="0.7419" d="M32.5018 60.7453C16.949 60.7453 4.32812 48.1245 4.32812 32.5721C4.32812 17.0194 16.949 4.39844 32.5018 4.39844C48.0544 4.39844 60.6754 17.0194 60.6754 32.5721C60.6754 48.1245 48.0544 60.7453 32.5018 60.7453Z" fill="#010101"/>
<path opacity="0.7742" d="M32.4947 60.5908C17.027 60.5908 4.47656 48.0403 4.47656 32.5729C4.47656 17.1051 17.0271 4.55469 32.4947 4.55469C47.9623 4.55469 60.5128 17.1051 60.5128 32.5729C60.5128 48.0403 47.9623 60.5908 32.4947 60.5908Z" fill="#010101"/>
<path opacity="0.8065" d="M32.4956 60.4343C17.1128 60.4343 4.63281 47.9543 4.63281 32.5717C4.63281 17.1889 17.1128 4.70898 32.4956 4.70898C47.8783 4.70898 60.3583 17.1889 60.3583 32.5717C60.3583 47.9543 47.8783 60.4343 32.4956 60.4343Z" fill="#010101"/>
<path opacity="0.8387" d="M32.4964 60.2796C17.1985 60.2796 4.78906 47.8703 4.78906 32.5725C4.78906 17.2746 17.1985 4.86523 32.4964 4.86523C47.7942 4.86523 60.2038 17.2747 60.2038 32.5725C60.2038 47.8703 47.7942 60.2796 32.4964 60.2796Z" fill="#010101"/>
<path opacity="0.871" d="M32.4972 60.1233C17.2843 60.1233 4.94531 47.7843 4.94531 32.5714C4.94531 17.3585 17.2843 5.01953 32.4972 5.01953C47.71 5.01953 60.0492 17.3585 60.0492 32.5714C60.0492 47.7843 47.71 60.1233 32.4972 60.1233Z" fill="#010101"/>
<path opacity="0.9032" d="M32.4981 59.9687C17.37 59.9687 5.10156 47.7001 5.10156 32.5723C5.10156 17.4442 17.3701 5.17578 32.4981 5.17578C47.626 5.17578 59.8946 17.4442 59.8946 32.5723C59.8946 47.7001 47.626 59.9687 32.4981 59.9687Z" fill="#010101"/>
<path opacity="0.9355" d="M32.4989 59.8122C17.4559 59.8122 5.25781 47.6142 5.25781 32.5712C5.25781 17.5281 17.4559 5.33008 32.4989 5.33008C47.542 5.33008 59.7401 17.5281 59.7401 32.5712C59.7401 47.6142 47.542 59.8122 32.4989 59.8122Z" fill="#010101"/>
<path opacity="0.9677" d="M32.4998 59.6576C17.5417 59.6576 5.41406 47.5301 5.41406 32.572C5.41406 17.6139 17.5416 5.48633 32.4998 5.48633C47.4579 5.48633 59.5856 17.6139 59.5856 32.572C59.5856 47.5299 47.4579 59.6576 32.4998 59.6576Z" fill="#010101"/>
<path d="M32.5006 59.5031C47.3737 59.5031 59.4308 47.446 59.4308 32.5728C59.4308 17.6997 47.3737 5.64258 32.5006 5.64258C17.6274 5.64258 5.57031 17.6997 5.57031 32.5728C5.57031 47.446 17.6274 59.5031 32.5006 59.5031Z" fill="#010101"/>
</g>
<path d="M32.5006 59.5031C47.3737 59.5031 59.4308 47.446 59.4308 32.5728C59.4308 17.6997 47.3737 5.64258 32.5006 5.64258C17.6274 5.64258 5.57031 17.6997 5.57031 32.5728C5.57031 47.446 17.6274 59.5031 32.5006 59.5031Z" fill="white"/>
<path d="M32.4945 10.6016C20.3797 10.6016 10.5234 20.4584 10.5234 32.573C10.5234 44.6876 20.3797 54.5436 32.4945 54.5436C44.6092 54.5436 54.4656 44.6877 54.4656 32.573C54.4656 20.4583 44.6092 10.6016 32.4945 10.6016Z" fill="#3B625A"/>
<path d="M24.7584 30.9093C26.8988 30.9093 28.6339 29.1742 28.6339 27.0338C28.6339 24.8933 26.8988 23.1582 24.7584 23.1582C22.618 23.1582 20.8828 24.8933 20.8828 27.0338C20.8828 29.1742 22.618 30.9093 24.7584 30.9093Z" fill="white"/>
<path d="M40.2272 30.9076C42.3677 30.9076 44.1029 29.1724 44.1029 27.0319C44.1029 24.8914 42.3677 23.1562 40.2272 23.1562C38.0868 23.1562 36.3516 24.8914 36.3516 27.0319C36.3516 29.1724 38.0868 30.9076 40.2272 30.9076Z" fill="white"/>
<path d="M25.4396 36.2227H39.5475C40.0588 36.2227 40.5402 36.4647 40.8457 36.8742C41.1514 37.2846 41.2452 37.8142 41.0992 38.3044C39.7484 42.834 36.3692 45.7609 32.4902 45.7609C28.6148 45.7609 25.2384 42.834 23.8877 38.3044C23.7417 37.8141 23.8358 37.2846 24.1414 36.8742C24.4469 36.4647 24.9282 36.2227 25.4396 36.2227Z" fill="white"/>
</g>
<defs>
<clipPath id="clip0_623_1848">
<rect width="64" height="64" fill="white" transform="translate(0.5 0.5)"/>
</clipPath>
</defs>
</svg>
