<svg width="540" height="540" viewBox="0 0 540 540" fill="none" xmlns="http://www.w3.org/2000/svg">
<g opacity="0.05">
<path opacity="0.0323" d="M270 537.169C123.011 537.169 3.43652 417.598 3.43652 270.612C3.43652 123.62 123.011 4.04785 270 4.04785C416.99 4.04785 536.562 123.619 536.562 270.612C536.562 417.598 416.99 537.169 270 537.169Z" fill="#010101"/>
<path opacity="0.0645" d="M270 535.858C123.727 535.858 4.74805 416.881 4.74805 270.612C4.74805 124.336 123.727 5.35986 270 5.35986C416.273 5.35986 535.253 124.337 535.253 270.612C535.253 416.882 416.273 535.858 270 535.858Z" fill="#010101"/>
<path opacity="0.0968" d="M270 534.547C124.444 534.547 6.05957 416.165 6.05957 270.612C6.05957 125.053 124.444 6.6709 270 6.6709C415.558 6.6709 533.941 125.053 533.941 270.612C533.941 416.165 415.558 534.547 270 534.547Z" fill="#010101"/>
<path opacity="0.129" d="M270 533.235C125.16 533.235 7.37109 415.448 7.37109 270.612C7.37109 125.77 125.16 7.98193 270 7.98193C414.841 7.98193 532.63 125.769 532.63 270.612C532.63 415.448 414.841 533.235 270 533.235Z" fill="#010101"/>
<path opacity="0.1613" d="M270 531.925C125.877 531.925 8.68164 414.732 8.68164 270.612C8.68164 126.486 125.877 9.29297 270 9.29297C414.124 9.29297 531.318 126.486 531.318 270.612C531.318 414.731 414.124 531.925 270 531.925Z" fill="#010101"/>
<path opacity="0.1935" d="M270 530.613C126.593 530.613 9.99414 414.015 9.99414 270.611C9.99414 127.202 126.594 10.604 270 10.604C413.407 10.604 530.008 127.202 530.008 270.611C530.008 414.016 413.407 530.613 270 530.613Z" fill="#010101"/>
<path opacity="0.2258" d="M270 529.302C127.31 529.302 11.3047 413.299 11.3047 270.612C11.3047 127.919 127.31 11.916 270 11.916C412.691 11.916 528.696 127.919 528.696 270.611C528.696 413.299 412.691 529.302 270 529.302Z" fill="#010101"/>
<path opacity="0.2581" d="M270 527.991C128.027 527.991 12.6162 412.582 12.6162 270.611C12.6162 128.636 128.027 13.2271 270 13.2271C411.975 13.2271 527.385 128.636 527.385 270.611C527.385 412.582 411.975 527.991 270 527.991Z" fill="#010101"/>
<path opacity="0.2903" d="M270 526.68C128.743 526.68 13.9268 411.866 13.9268 270.612C13.9268 129.353 128.743 14.5376 270 14.5376C411.258 14.5376 526.073 129.352 526.073 270.611C526.073 411.865 411.258 526.68 270 526.68Z" fill="#010101"/>
<path opacity="0.3226" d="M270 525.368C129.46 525.368 15.2393 411.149 15.2393 270.611C15.2393 130.069 129.46 15.8496 270 15.8496C410.541 15.8496 524.763 130.069 524.763 270.612C524.763 411.149 410.541 525.368 270 525.368Z" fill="#010101"/>
<path opacity="0.3548" d="M270 524.058C130.176 524.058 16.5498 410.433 16.5498 270.612C16.5498 130.786 130.176 17.1606 270 17.1606C409.824 17.1606 523.451 130.786 523.451 270.612C523.451 410.433 409.824 524.058 270 524.058Z" fill="#010101"/>
<path opacity="0.3871" d="M270 522.746C130.893 522.746 17.8613 409.716 17.8613 270.611C17.8613 131.502 130.893 18.4717 270 18.4717C409.108 18.4717 522.14 131.502 522.14 270.611C522.14 409.716 409.108 522.746 270 522.746Z" fill="#010101"/>
<path opacity="0.4194" d="M270 521.435C131.61 521.435 19.1729 408.999 19.1729 270.612C19.1729 132.219 131.61 19.7827 270 19.7827C408.392 19.7827 520.828 132.219 520.828 270.611C520.828 408.999 408.392 521.435 270 521.435Z" fill="#010101"/>
<path opacity="0.4516" d="M270 520.124C132.326 520.124 20.4844 408.283 20.4844 270.611C20.4844 132.935 132.326 21.0938 270 21.0938C407.675 21.0938 519.518 132.935 519.518 270.611C519.518 408.283 407.675 520.124 270 520.124Z" fill="#010101"/>
<path opacity="0.4839" d="M270 518.813C133.043 518.813 21.7949 407.567 21.7949 270.612C21.7949 133.652 133.043 22.4058 270 22.4058C406.958 22.4058 518.206 133.652 518.206 270.612C518.206 407.566 406.958 518.813 270 518.813Z" fill="#010101"/>
<path opacity="0.5161" d="M270.001 517.501C133.759 517.501 23.1074 406.85 23.1074 270.61C23.1074 134.368 133.759 23.7158 270.001 23.7158C406.242 23.7158 516.895 134.367 516.895 270.61C516.895 406.85 406.242 517.501 270.001 517.501Z" fill="#010101"/>
<path opacity="0.5484" d="M270.001 516.189C134.476 516.189 24.418 406.132 24.418 270.61C24.418 135.085 134.476 25.0278 270.001 25.0278C405.525 25.0278 515.583 135.085 515.583 270.61C515.583 406.133 405.525 516.189 270.001 516.189Z" fill="#010101"/>
<path opacity="0.5806" d="M270.001 514.879C135.192 514.879 25.7305 405.417 25.7305 270.61C25.7305 135.801 135.193 26.3389 270.001 26.3389C404.809 26.3389 514.272 135.801 514.272 270.61C514.272 405.417 404.809 514.879 270.001 514.879Z" fill="#010101"/>
<path opacity="0.6129" d="M270.001 513.567C135.909 513.567 27.041 404.7 27.041 270.61C27.041 136.518 135.909 27.6499 270.001 27.6499C404.092 27.6499 512.961 136.518 512.961 270.61C512.961 404.7 404.092 513.567 270.001 513.567Z" fill="#010101"/>
<path opacity="0.6452" d="M270.001 512.256C136.626 512.256 28.3516 403.984 28.3516 270.61C28.3516 137.234 136.626 28.9619 270.001 28.9619C403.376 28.9619 511.649 137.234 511.649 270.61C511.649 403.983 403.376 512.256 270.001 512.256Z" fill="#010101"/>
<path opacity="0.6774" d="M270.001 510.945C137.342 510.945 29.6641 403.266 29.6641 270.61C29.6641 137.951 137.343 30.2729 270.001 30.2729C402.659 30.2729 510.338 137.951 510.338 270.61C510.338 403.267 402.659 510.945 270.001 510.945Z" fill="#010101"/>
<path opacity="0.7097" d="M270.001 509.634C138.059 509.634 30.9746 402.551 30.9746 270.611C30.9746 138.668 138.059 31.585 270.001 31.585C401.942 31.585 509.027 138.668 509.027 270.611C509.027 402.551 401.942 509.634 270.001 509.634Z" fill="#010101"/>
<path opacity="0.7419" d="M270.001 508.322C138.775 508.322 32.2861 401.834 32.2861 270.61C32.2861 139.384 138.775 32.895 270.001 32.895C401.226 32.895 507.716 139.384 507.716 270.61C507.716 401.834 401.226 508.322 270.001 508.322Z" fill="#010101"/>
<path opacity="0.7742" d="M270.001 507.012C139.492 507.012 33.5977 401.117 33.5977 270.611C33.5977 140.101 139.493 34.207 270.001 34.207C400.509 34.207 506.404 140.101 506.404 270.611C506.404 401.117 400.509 507.012 270.001 507.012Z" fill="#010101"/>
<path opacity="0.8065" d="M270.001 505.7C140.209 505.7 34.9092 400.4 34.9092 270.61C34.9092 140.817 140.209 35.5176 270.001 35.5176C399.793 35.5176 505.093 140.817 505.093 270.61C505.093 400.4 399.793 505.7 270.001 505.7Z" fill="#010101"/>
<path opacity="0.8387" d="M270.001 504.389C140.925 504.389 36.2197 399.685 36.2197 270.61C36.2197 141.534 140.925 36.8296 270.001 36.8296C399.076 36.8296 503.782 141.535 503.782 270.61C503.782 399.685 399.076 504.389 270.001 504.389Z" fill="#010101"/>
<path opacity="0.871" d="M270.001 503.078C141.642 503.078 37.5322 398.968 37.5322 270.609C37.5322 142.25 141.642 38.1396 270.001 38.1396C398.359 38.1396 502.471 142.25 502.471 270.609C502.471 398.968 398.359 503.078 270.001 503.078Z" fill="#010101"/>
<path opacity="0.9032" d="M270.001 501.767C142.358 501.767 38.8428 398.251 38.8428 270.61C38.8428 142.967 142.359 39.4517 270.001 39.4517C397.643 39.4517 501.159 142.967 501.159 270.61C501.159 398.251 397.643 501.767 270.001 501.767Z" fill="#010101"/>
<path opacity="0.9355" d="M270.001 500.455C143.075 500.455 40.1543 397.534 40.1543 270.609C40.1543 143.683 143.075 40.7617 270.001 40.7617C396.927 40.7617 499.848 143.683 499.848 270.609C499.848 397.534 396.927 500.455 270.001 500.455Z" fill="#010101"/>
<path opacity="0.9677" d="M270.001 499.145C143.792 499.145 41.4648 396.819 41.4648 270.61C41.4648 144.401 143.791 42.0747 270.001 42.0747C396.21 42.0747 498.537 144.401 498.537 270.61C498.537 396.818 396.21 499.145 270.001 499.145Z" fill="#010101"/>
<path d="M270.001 497.833C395.494 497.833 497.225 396.101 497.225 270.609C497.225 145.116 395.494 43.3848 270.001 43.3848C144.509 43.3848 42.7773 145.116 42.7773 270.609C42.7773 396.101 144.509 497.833 270.001 497.833Z" fill="#010101"/>
</g>
<path d="M270.001 497.833C395.494 497.833 497.225 396.101 497.225 270.609C497.225 145.116 395.494 43.3848 270.001 43.3848C144.509 43.3848 42.7773 145.116 42.7773 270.609C42.7773 396.101 144.509 497.833 270.001 497.833Z" fill="white"/>
<path d="M270 85.228C167.781 85.228 84.6191 168.395 84.6191 270.612C84.6191 372.829 167.781 455.989 270 455.989C372.218 455.989 455.381 372.83 455.381 270.612C455.381 168.394 372.218 85.228 270 85.228Z" fill="#02A976"/>
<path d="M204.735 256.567C222.795 256.567 237.435 241.927 237.435 223.867C237.435 205.807 222.795 191.167 204.735 191.167C186.675 191.167 172.035 205.807 172.035 223.867C172.035 241.927 186.675 256.567 204.735 256.567Z" fill="white"/>
<path d="M335.265 256.568C353.326 256.568 367.966 241.927 367.966 223.867C367.966 205.807 353.326 191.166 335.265 191.166C317.205 191.166 302.564 205.807 302.564 223.867C302.564 241.927 317.205 256.568 335.265 256.568Z" fill="white"/>
<path d="M210.483 301.414H329.518C333.832 301.414 337.894 303.456 340.472 306.911C343.051 310.374 343.843 314.843 342.611 318.979C331.213 357.197 302.701 381.893 269.972 381.893C237.274 381.893 208.785 357.197 197.389 318.979C196.157 314.842 196.951 310.374 199.529 306.911C202.107 303.456 206.168 301.414 210.483 301.414Z" fill="white"/>
</svg>
