<svg width="65" height="65" viewBox="0 0 65 65" fill="none" xmlns="http://www.w3.org/2000/svg">
<g clip-path="url(#clip0_623_1803)">
<g opacity="0.05">
<path opacity="0.0323" d="M32.6415 64.2744C15.2065 64.2744 1.02344 50.0916 1.02344 32.6571C1.02344 15.2218 15.2065 1.03906 32.6415 1.03906C50.0764 1.03906 64.2595 15.2218 64.2595 32.6571C64.2595 50.0916 50.0764 64.2744 32.6415 64.2744Z" fill="#010101"/>
<path opacity="0.0645" d="M32.6422 64.1177C15.2923 64.1177 1.17969 50.0054 1.17969 32.6559C1.17969 15.3056 15.2923 1.19336 32.6422 1.19336C49.9921 1.19336 64.1047 15.3056 64.1047 32.6559C64.1047 50.0054 49.9921 64.1177 32.6422 64.1177Z" fill="#010101"/>
<path opacity="0.0968" d="M32.643 63.9629C15.378 63.9629 1.33594 49.9211 1.33594 32.6566C1.33594 15.3913 15.378 1.34961 32.643 1.34961C49.9079 1.34961 63.9499 15.3913 63.9499 32.6566C63.9499 49.9211 49.9079 63.9629 32.643 63.9629Z" fill="#010101"/>
<path opacity="0.129" d="M32.6436 63.8082C15.4636 63.8082 1.49219 49.837 1.49219 32.6574C1.49219 15.4772 15.4637 1.50586 32.6436 1.50586C49.8236 1.50586 63.7951 15.4771 63.7951 32.6574C63.7951 49.837 49.8236 63.8082 32.6436 63.8082Z" fill="#010101"/>
<path opacity="0.1613" d="M32.6444 63.6513C15.5495 63.6513 1.64844 49.7506 1.64844 32.6561C1.64844 15.5608 15.5495 1.66016 32.6444 1.66016C49.7392 1.66016 63.6403 15.5607 63.6403 32.6559C63.6403 49.7506 49.7392 63.6513 32.6444 63.6513Z" fill="#010101"/>
<path opacity="0.1935" d="M32.6373 63.4965C15.6274 63.4965 1.79688 49.6665 1.79688 32.6567C1.79688 15.6466 15.6273 1.81641 32.6373 1.81641C49.6473 1.81641 63.4777 15.6466 63.4777 32.6567C63.4777 49.6665 49.6472 63.4965 32.6373 63.4965Z" fill="#010101"/>
<path opacity="0.2258" d="M32.6379 63.3398C15.713 63.3398 1.95312 49.5802 1.95312 32.6555C1.95312 15.7303 15.713 1.9707 32.6379 1.9707C49.563 1.9707 63.3227 15.7303 63.3227 32.6555C63.3227 49.5802 49.563 63.3398 32.6379 63.3398Z" fill="#010101"/>
<path opacity="0.2581" d="M32.6387 63.185C15.7987 63.185 2.10938 49.4958 2.10938 32.6561C2.10938 15.816 15.7987 2.12695 32.6387 2.12695C49.4786 2.12695 63.168 15.816 63.168 32.6561C63.168 49.4958 49.4786 63.185 32.6387 63.185Z" fill="#010101"/>
<path opacity="0.2903" d="M32.6393 63.0301C15.8844 63.0301 2.26562 49.4116 2.26562 32.6569C2.26562 15.9017 15.8845 2.2832 32.6393 2.2832C49.3943 2.2832 63.013 15.9017 63.013 32.6569C63.013 49.4115 49.3943 63.0301 32.6393 63.0301Z" fill="#010101"/>
<path opacity="0.3226" d="M32.6401 62.8734C15.9701 62.8734 2.42188 49.3254 2.42188 32.6557C2.42188 15.9855 15.9701 2.4375 32.6401 2.4375C49.3101 2.4375 62.8584 15.9855 62.8584 32.6557C62.8584 49.3256 49.3101 62.8734 32.6401 62.8734Z" fill="#010101"/>
<path opacity="0.3548" d="M32.6408 62.7186C16.0558 62.7186 2.57812 49.2411 2.57812 32.6564C2.57812 16.0712 16.0558 2.59375 32.6408 2.59375C49.2258 2.59375 62.7035 16.0712 62.7035 32.6564C62.7035 49.2411 49.2257 62.7186 32.6408 62.7186Z" fill="#010101"/>
<path opacity="0.3871" d="M32.6415 62.5638C16.1415 62.5638 2.73438 49.1569 2.73438 32.6571C2.73438 16.1568 16.1415 2.75 32.6415 2.75C49.1415 2.75 62.5487 16.1569 62.5487 32.6571C62.5487 49.1569 49.1415 62.5638 32.6415 62.5638Z" fill="#010101"/>
<path opacity="0.4194" d="M32.6422 62.407C16.2273 62.407 2.89062 49.0707 2.89062 32.6559C2.89062 16.2407 16.2273 2.9043 32.6422 2.9043C49.0573 2.9043 62.3938 16.2406 62.3938 32.6559C62.3938 49.0706 49.0573 62.407 32.6422 62.407Z" fill="#010101"/>
<path opacity="0.4516" d="M32.643 62.2523C16.313 62.2523 3.04688 48.9864 3.04688 32.6566C3.04688 16.3264 16.313 3.06055 32.643 3.06055C48.9729 3.06055 62.2391 16.3264 62.2391 32.6566C62.2391 48.9864 48.9729 62.2523 32.643 62.2523Z" fill="#010101"/>
<path opacity="0.4839" d="M32.6436 62.0973C16.3986 62.0973 3.20312 48.902 3.20312 32.6573C3.20312 16.4121 16.3986 3.2168 32.6436 3.2168C48.8886 3.2168 62.0841 16.4121 62.0841 32.6573C62.0841 48.902 48.8886 62.0973 32.6436 62.0973Z" fill="#010101"/>
<path opacity="0.5161" d="M32.6445 61.9407C16.4844 61.9407 3.35938 48.816 3.35938 32.656C3.35938 16.4958 16.4844 3.37109 32.6445 3.37109C48.8045 3.37109 61.9294 16.4958 61.9294 32.656C61.9294 48.816 48.8045 61.9407 32.6445 61.9407Z" fill="#010101"/>
<path opacity="0.5484" d="M32.6373 61.7858C16.5623 61.7858 3.50781 48.7316 3.50781 32.6567C3.50781 16.5816 16.5623 3.52734 32.6373 3.52734C48.7123 3.52734 61.7667 16.5816 61.7667 32.6567C61.7667 48.7316 48.7123 61.7858 32.6373 61.7858Z" fill="#010101"/>
<path opacity="0.5806" d="M32.6381 61.6291C16.6479 61.6291 3.66406 48.6454 3.66406 32.6555C3.66406 16.6653 16.648 3.68164 32.6381 3.68164C48.628 3.68164 61.6119 16.6653 61.6119 32.6555C61.6119 48.6454 48.628 61.6291 32.6381 61.6291Z" fill="#010101"/>
<path opacity="0.6129" d="M32.6388 61.4742C16.7337 61.4742 3.82031 48.5611 3.82031 32.6561C3.82031 16.751 16.7337 3.83789 32.6388 3.83789C48.5438 3.83789 61.4571 16.7511 61.4571 32.6561C61.4571 48.5611 48.5438 61.4742 32.6388 61.4742Z" fill="#010101"/>
<path opacity="0.6452" d="M32.6394 61.3195C16.8194 61.3195 3.97656 48.477 3.97656 32.6569C3.97656 16.8368 16.8194 3.99414 32.6394 3.99414C48.4594 3.99414 61.3022 16.8367 61.3022 32.6569C61.3022 48.477 48.4594 61.3195 32.6394 61.3195Z" fill="#010101"/>
<path opacity="0.6774" d="M32.6402 61.1627C16.9051 61.1627 4.13281 48.3906 4.13281 32.6557C4.13281 16.9206 16.9051 4.14844 32.6402 4.14844C48.3752 4.14844 61.1473 16.9206 61.1473 32.6557C61.1473 48.3906 48.3752 61.1627 32.6402 61.1627Z" fill="#010101"/>
<path opacity="0.7097" d="M32.6409 61.0079C16.9908 61.0079 4.28906 48.3063 4.28906 32.6563C4.28906 17.0062 16.9908 4.30469 32.6409 4.30469C48.291 4.30469 60.9927 17.0062 60.9927 32.6563C60.9927 48.3063 48.291 61.0079 32.6409 61.0079Z" fill="#010101"/>
<path opacity="0.7419" d="M32.6416 60.853C17.0764 60.853 4.44531 48.2221 4.44531 32.6571C4.44531 17.0919 17.0765 4.46094 32.6416 4.46094C48.2066 4.46094 60.8377 17.0919 60.8377 32.6571C60.8377 48.222 48.2066 60.853 32.6416 60.853Z" fill="#010101"/>
<path opacity="0.7742" d="M32.6423 60.6963C17.1623 60.6963 4.60156 48.1358 4.60156 32.6559C4.60156 17.1757 17.1622 4.61523 32.6423 4.61523C48.1223 4.61523 60.683 17.1757 60.683 32.6559C60.683 48.1359 48.1223 60.6963 32.6423 60.6963Z" fill="#010101"/>
<path opacity="0.8065" d="M32.643 60.5414C17.2479 60.5414 4.75781 48.0515 4.75781 32.6565C4.75781 17.2614 17.2479 4.77148 32.643 4.77148C48.0381 4.77148 60.528 17.2614 60.528 32.6565C60.528 48.0515 48.0379 60.5414 32.643 60.5414Z" fill="#010101"/>
<path opacity="0.8387" d="M32.6437 60.3847C17.3336 60.3847 4.91406 47.9654 4.91406 32.6552C4.91406 17.3451 17.3336 4.92578 32.6437 4.92578C47.9538 4.92578 60.3733 17.3452 60.3733 32.6552C60.3733 47.9654 47.9538 60.3847 32.6437 60.3847Z" fill="#010101"/>
<path opacity="0.871" d="M32.6445 60.2299C17.4194 60.2299 5.07031 47.8811 5.07031 32.656C5.07031 17.4309 17.4194 5.08203 32.6445 5.08203C47.8695 5.08203 60.2184 17.4308 60.2184 32.656C60.2184 47.881 47.8695 60.2299 32.6445 60.2299Z" fill="#010101"/>
<path opacity="0.9032" d="M32.6373 60.0751C17.4972 60.0751 5.21875 47.7969 5.21875 32.6567C5.21875 17.5167 17.4973 5.23828 32.6373 5.23828C47.7773 5.23828 60.0558 17.5167 60.0558 32.6567C60.0558 47.7969 47.7773 60.0751 32.6373 60.0751Z" fill="#010101"/>
<path opacity="0.9355" d="M32.6381 59.9183C17.583 59.9183 5.375 47.7106 5.375 32.6554C5.375 17.6003 17.5829 5.39258 32.6381 5.39258C47.6932 5.39258 59.901 17.6003 59.901 32.6554C59.901 47.7106 47.6931 59.9183 32.6381 59.9183Z" fill="#010101"/>
<path opacity="0.9677" d="M32.6388 59.7636C17.6686 59.7636 5.53125 47.6263 5.53125 32.6561C5.53125 17.6861 17.6686 5.54883 32.6388 5.54883C47.6089 5.54883 59.7462 17.6861 59.7462 32.6561C59.7462 47.6263 47.6088 59.7636 32.6388 59.7636Z" fill="#010101"/>
<path d="M32.6394 59.609C47.5246 59.609 59.5914 47.5422 59.5914 32.657C59.5914 17.7719 47.5246 5.70508 32.6394 5.70508C17.7543 5.70508 5.6875 17.7719 5.6875 32.657C5.6875 47.5422 17.7543 59.609 32.6394 59.609Z" fill="#010101"/>
</g>
<path d="M32.6394 59.609C47.5246 59.609 59.5914 47.5422 59.5914 32.657C59.5914 17.7719 47.5246 5.70508 32.6394 5.70508C17.7543 5.70508 5.6875 17.7719 5.6875 32.657C5.6875 47.5422 17.7543 59.609 32.6394 59.609Z" fill="white"/>
<path d="M32.6371 10.668C20.5124 10.668 10.6484 20.5325 10.6484 32.6571C10.6484 44.7814 20.5124 54.6452 32.6371 54.6452C44.7616 54.6452 54.6259 44.7813 54.6259 32.6571C54.6259 20.5326 44.7616 10.668 32.6371 10.668Z" fill="#D8A149"/>
<path d="M24.8944 30.9919C27.0366 30.9919 28.7731 29.2553 28.7731 27.1131C28.7731 24.971 27.0366 23.2344 24.8944 23.2344C22.7522 23.2344 21.0156 24.971 21.0156 27.1131C21.0156 29.2553 22.7522 30.9919 24.8944 30.9919Z" fill="white"/>
<path d="M40.3788 30.9919C42.5209 30.9919 44.2575 29.2553 44.2575 27.1131C44.2575 24.971 42.5209 23.2344 40.3788 23.2344C38.2366 23.2344 36.5 24.971 36.5 27.1131C36.5 29.2553 38.2366 30.9919 40.3788 30.9919Z" fill="white"/>
<path d="M32.6357 42.9989C29.6113 42.9989 26.8187 42.8775 24.9743 42.6667C24.11 42.5674 23.4895 41.7867 23.5885 40.9221C23.6877 40.0576 24.4702 39.4347 25.3327 39.5362C27.0383 39.7316 29.7683 39.8485 32.6357 39.8485C35.4931 39.8485 38.2236 39.7317 39.9395 39.5362C40.8062 39.4385 41.5846 40.0584 41.683 40.9229C41.7813 41.7875 41.1605 42.5682 40.2962 42.6667C38.4416 42.8774 35.6495 42.9989 32.6357 42.9989Z" fill="white"/>
</g>
<defs>
<clipPath id="clip0_623_1803">
<rect width="64" height="64" fill="white" transform="translate(0.5 0.5)"/>
</clipPath>
</defs>
</svg>
