<svg width="540" height="540" viewBox="0 0 540 540" fill="none" xmlns="http://www.w3.org/2000/svg">
<g opacity="0.05">
<path opacity="0.0323" d="M271.213 538.096C124.106 538.096 4.43555 418.429 4.43555 271.325C4.43555 124.215 124.106 4.54785 271.213 4.54785C418.32 4.54785 537.99 124.215 537.99 271.325C537.99 418.429 418.32 538.096 271.213 538.096Z" fill="#010101"/>
<path opacity="0.0645" d="M271.212 536.783C124.822 536.783 5.74707 417.711 5.74707 271.324C5.74707 124.931 124.822 5.85889 271.212 5.85889C417.602 5.85889 536.677 124.931 536.677 271.324C536.677 417.711 417.602 536.783 271.212 536.783Z" fill="#010101"/>
<path opacity="0.0968" d="M271.212 535.472C125.539 535.472 7.05859 416.994 7.05859 271.325C7.05859 125.649 125.539 7.17188 271.212 7.17188C416.885 7.17188 535.364 125.649 535.364 271.325C535.364 416.994 416.885 535.472 271.212 535.472Z" fill="#010101"/>
<path opacity="0.129" d="M271.212 534.159C126.256 534.159 8.37207 416.277 8.37207 271.324C8.37207 126.366 126.257 8.48291 271.212 8.48291C416.168 8.48291 534.053 126.365 534.053 271.324C534.053 416.277 416.168 534.159 271.212 534.159Z" fill="#010101"/>
<path opacity="0.1613" d="M271.212 532.847C126.974 532.847 9.68359 415.56 9.68359 271.325C9.68359 127.084 126.974 9.79688 271.212 9.79688C415.45 9.79688 532.74 127.083 532.74 271.324C532.74 415.56 415.45 532.847 271.212 532.847Z" fill="#010101"/>
<path opacity="0.1935" d="M271.212 531.534C127.691 531.534 10.9961 414.843 10.9961 271.323C10.9961 127.8 127.69 11.1079 271.212 11.1079C414.734 11.1079 531.428 127.8 531.428 271.323C531.428 414.843 414.733 531.534 271.212 531.534Z" fill="#010101"/>
<path opacity="0.2258" d="M271.212 530.223C128.408 530.223 12.3086 414.126 12.3086 271.324C12.3086 128.518 128.408 12.4209 271.212 12.4209C414.017 12.4209 530.115 128.518 530.115 271.324C530.115 414.126 414.017 530.223 271.212 530.223Z" fill="#010101"/>
<path opacity="0.2581" d="M271.212 528.91C129.125 528.91 13.6211 413.408 13.6211 271.323C13.6211 129.234 129.125 13.7329 271.212 13.7329C413.299 13.7329 528.803 129.234 528.803 271.323C528.803 413.408 413.299 528.91 271.212 528.91Z" fill="#010101"/>
<path opacity="0.2903" d="M271.212 527.598C129.842 527.598 14.9336 412.692 14.9336 271.324C14.9336 129.952 129.843 15.0459 271.212 15.0459C412.582 15.0459 527.49 129.952 527.49 271.324C527.49 412.691 412.582 527.598 271.212 527.598Z" fill="#010101"/>
<path opacity="0.3226" d="M271.212 526.285C130.559 526.285 16.2461 411.974 16.2461 271.323C16.2461 130.668 130.559 16.3569 271.212 16.3569C411.865 16.3569 526.179 130.668 526.179 271.323C526.179 411.975 411.865 526.285 271.212 526.285Z" fill="#010101"/>
<path opacity="0.3548" d="M271.212 524.973C131.276 524.973 17.5576 411.257 17.5576 271.324C17.5576 131.386 131.276 17.6699 271.212 17.6699C411.148 17.6699 524.866 131.386 524.866 271.324C524.866 411.257 411.147 524.973 271.212 524.973Z" fill="#010101"/>
<path opacity="0.3871" d="M271.212 523.661C131.994 523.661 18.8711 410.54 18.8711 271.323C18.8711 132.102 131.994 18.9819 271.212 18.9819C410.431 18.9819 523.554 132.103 523.554 271.323C523.554 410.54 410.431 523.661 271.212 523.661Z" fill="#010101"/>
<path opacity="0.4194" d="M271.212 522.349C132.711 522.349 20.1826 409.824 20.1826 271.324C20.1826 132.821 132.711 20.2949 271.212 20.2949C409.714 20.2949 522.241 132.82 522.241 271.324C522.241 409.823 409.714 522.349 271.212 522.349Z" fill="#010101"/>
<path opacity="0.4516" d="M271.212 521.036C133.428 521.036 21.4951 409.105 21.4951 271.323C21.4951 133.537 133.428 21.606 271.212 21.606C408.996 21.606 520.929 133.537 520.929 271.323C520.929 409.105 408.996 521.036 271.212 521.036Z" fill="#010101"/>
<path opacity="0.4839" d="M271.212 519.724C134.145 519.724 22.8076 408.389 22.8076 271.324C22.8076 134.255 134.145 22.9199 271.212 22.9199C408.279 22.9199 519.616 134.255 519.616 271.324C519.616 408.389 408.279 519.724 271.212 519.724Z" fill="#010101"/>
<path opacity="0.5161" d="M271.213 518.412C134.862 518.412 24.1201 407.672 24.1201 271.322C24.1201 134.971 134.862 24.231 271.213 24.231C407.563 24.231 518.305 134.971 518.305 271.322C518.305 407.672 407.563 518.412 271.213 518.412Z" fill="#010101"/>
<path opacity="0.5484" d="M271.213 517.1C135.58 517.1 25.4326 406.955 25.4326 271.323C25.4326 135.689 135.58 25.5439 271.213 25.5439C406.846 25.5439 516.992 135.689 516.992 271.323C516.992 406.955 406.846 517.1 271.213 517.1Z" fill="#010101"/>
<path opacity="0.5806" d="M271.213 515.787C136.296 515.787 26.7451 406.237 26.7451 271.322C26.7451 136.405 136.297 26.855 271.213 26.855C406.128 26.855 515.68 136.405 515.68 271.322C515.68 406.237 406.128 515.787 271.213 515.787Z" fill="#010101"/>
<path opacity="0.6129" d="M271.213 514.475C137.014 514.475 28.0566 405.521 28.0566 271.323C28.0566 137.123 137.014 28.1689 271.213 28.1689C405.411 28.1689 514.367 137.124 514.367 271.323C514.367 405.521 405.411 514.475 271.213 514.475Z" fill="#010101"/>
<path opacity="0.6452" d="M271.213 513.163C137.731 513.163 29.3701 404.804 29.3701 271.322C29.3701 137.84 137.731 29.48 271.213 29.48C404.694 29.48 513.055 137.839 513.055 271.322C513.055 404.804 404.694 513.163 271.213 513.163Z" fill="#010101"/>
<path opacity="0.6774" d="M271.213 511.851C138.448 511.851 30.6816 404.086 30.6816 271.323C30.6816 138.558 138.448 30.793 271.213 30.793C403.977 30.793 511.742 138.558 511.742 271.323C511.742 404.086 403.977 511.851 271.213 511.851Z" fill="#010101"/>
<path opacity="0.7097" d="M271.213 510.538C139.165 510.538 31.9941 403.369 31.9941 271.322C31.9941 139.274 139.165 32.105 271.213 32.105C403.26 32.105 510.431 139.274 510.431 271.322C510.431 403.369 403.26 510.538 271.213 510.538Z" fill="#010101"/>
<path opacity="0.7419" d="M271.213 509.226C139.882 509.226 33.3066 402.653 33.3066 271.323C33.3066 139.992 139.883 33.418 271.213 33.418C402.543 33.418 509.118 139.992 509.118 271.323C509.118 402.652 402.543 509.226 271.213 509.226Z" fill="#010101"/>
<path opacity="0.7742" d="M271.213 507.913C140.6 507.913 34.6191 401.934 34.6191 271.322C34.6191 140.708 140.599 34.729 271.213 34.729C401.825 34.729 507.806 140.708 507.806 271.322C507.806 401.935 401.825 507.913 271.213 507.913Z" fill="#010101"/>
<path opacity="0.8065" d="M271.213 506.602C141.317 506.602 35.9316 401.218 35.9316 271.323C35.9316 141.427 141.317 36.043 271.213 36.043C401.109 36.043 506.493 141.427 506.493 271.323C506.493 401.218 401.108 506.602 271.213 506.602Z" fill="#010101"/>
<path opacity="0.8387" d="M271.213 505.289C142.034 505.289 37.2441 400.501 37.2441 271.321C37.2441 142.142 142.034 37.354 271.213 37.354C400.392 37.354 505.181 142.143 505.181 271.321C505.181 400.501 400.392 505.289 271.213 505.289Z" fill="#010101"/>
<path opacity="0.871" d="M271.213 503.977C142.751 503.977 38.5557 399.784 38.5557 271.322C38.5557 142.861 142.751 38.667 271.213 38.667C399.674 38.667 503.868 142.86 503.868 271.322C503.868 399.783 399.674 503.977 271.213 503.977Z" fill="#010101"/>
<path opacity="0.9032" d="M271.213 502.664C143.468 502.664 39.8691 399.066 39.8691 271.321C39.8691 143.577 143.469 39.978 271.213 39.978C398.957 39.978 502.557 143.577 502.557 271.321C502.557 399.066 398.957 502.664 271.213 502.664Z" fill="#010101"/>
<path opacity="0.9355" d="M271.213 501.353C144.186 501.353 41.1807 398.35 41.1807 271.322C41.1807 144.295 144.185 41.292 271.213 41.292C398.241 41.292 501.244 144.295 501.244 271.322C501.244 398.35 398.24 501.353 271.213 501.353Z" fill="#010101"/>
<path opacity="0.9677" d="M271.213 500.04C144.902 500.04 42.4932 397.632 42.4932 271.321C42.4932 145.011 144.902 42.603 271.213 42.603C397.523 42.603 499.932 145.011 499.932 271.321C499.932 397.632 397.522 500.04 271.213 500.04Z" fill="#010101"/>
<path d="M271.212 498.728C396.805 498.728 498.619 396.914 498.619 271.321C498.619 145.728 396.805 43.9141 271.212 43.9141C145.618 43.9141 43.8047 145.728 43.8047 271.321C43.8047 396.914 145.618 498.728 271.212 498.728Z" fill="#010101"/>
</g>
<path d="M271.212 498.728C396.805 498.728 498.619 396.914 498.619 271.321C498.619 145.728 396.805 43.9141 271.212 43.9141C145.618 43.9141 43.8047 145.728 43.8047 271.321C43.8047 396.914 145.618 498.728 271.212 498.728Z" fill="white"/>
<path d="M271.211 85.792C168.909 85.792 85.6816 169.024 85.6816 271.325C85.6816 373.624 168.909 456.85 271.211 456.85C373.512 456.85 456.742 373.623 456.742 271.325C456.742 169.025 373.512 85.792 271.211 85.792Z" fill="#FEC714"/>
<path d="M205.894 257.269C223.969 257.269 238.621 242.617 238.621 224.542C238.621 206.467 223.969 191.815 205.894 191.815C187.819 191.815 173.167 206.467 173.167 224.542C173.167 242.617 187.819 257.269 205.894 257.269Z" fill="white"/>
<path d="M336.53 257.269C354.604 257.269 369.257 242.617 369.257 224.542C369.257 206.467 354.604 191.815 336.53 191.815C318.455 191.815 303.803 206.467 303.803 224.542C303.803 242.617 318.455 257.269 336.53 257.269Z" fill="white"/>
<path d="M271.229 358.592C245.71 358.592 222.148 357.568 206.586 355.789C199.293 354.951 194.058 348.364 194.893 341.069C195.73 333.775 202.332 328.519 209.61 329.376C224.001 331.024 247.035 332.011 271.229 332.011C295.338 332.011 318.377 331.025 332.855 329.376C340.167 328.551 346.735 333.782 347.565 341.076C348.395 348.371 343.157 354.958 335.864 355.789C320.216 357.567 296.658 358.592 271.229 358.592Z" fill="white"/>
</svg>
